<?xml version="1.0" encoding="utf-8"?>
<!-- Generator: Adobe Illustrator 16.2.1, SVG Export Plug-In . SVG Version: 6.00 Build 0)  -->
<!DOCTYPE svg PUBLIC "-//W3C//DTD SVG 1.1//EN" "http://www.w3.org/Graphics/SVG/1.1/DTD/svg11.dtd">
<svg version="1.1" id="Layer_1" xmlns="http://www.w3.org/2000/svg" xmlns:xlink="http://www.w3.org/1999/xlink" x="0px" y="0px"
	 width="1024px" height="1024px" viewBox="0 0 1024 1024" enable-background="new 0 0 1024 1024" xml:space="preserve">
<rect fill="#FFFFFF" width="1024" height="1024"/>
<path d="M201,567.92V462.024c0-12.038,4.229-22.286,12.688-30.744c8.458-8.459,18.707-12.688,30.744-12.688
	c12.037,0,22.367,4.229,30.988,12.688c8.622,8.458,12.932,18.706,12.932,30.744V567.92c0,59.211,21.472,109.882,64.416,152.012
	c42.944,42.131,94.673,63.196,155.185,63.196c60.187,0,111.671-21.065,154.452-63.196c42.781-42.13,64.172-92.801,64.172-152.012
	V462.024c0-12.038,4.311-22.286,12.932-30.744c8.621-8.459,18.951-12.688,30.988-12.688s22.366,4.229,30.988,12.688
	c8.621,8.458,12.932,18.706,12.932,30.744V567.92c0,75.152-24.97,140.788-74.908,196.908
	c-49.938,56.12-111.996,89.873-186.172,101.26v42.456h136.64c12.038,0,22.448,4.229,31.232,12.688
	c8.784,8.458,13.176,18.544,13.176,30.256c0,12.037-4.311,22.285-12.932,30.744c-8.621,8.458-19.113,12.688-31.478,12.688H328.855
	c-12.037,0-22.285-4.229-30.745-12.688c-8.458-8.459-12.688-18.707-12.688-30.744c0-11.712,4.229-21.798,12.688-30.256
	c8.459-8.459,18.708-12.688,30.745-12.688h137.128v-41.968c-49.125-6.507-93.94-23.75-134.444-51.729
	c-40.504-27.979-72.387-63.684-95.648-107.114C212.631,664.3,201,617.696,201,567.92L201,567.92z M345.448,563.04V189.232
	c0-44.245,15.859-81.984,47.58-113.216c31.72-31.232,70.027-46.848,114.924-46.848c44.57,0,82.635,15.616,114.19,46.848
	c31.559,31.232,47.338,68.971,47.338,113.216V563.04c0,44.245-15.779,81.984-47.338,113.216
	c-31.557,31.232-69.621,46.848-114.19,46.848c-44.896,0-83.204-15.614-114.924-46.848
	C361.308,645.024,345.448,607.285,345.448,563.04L345.448,563.04z"/>
</svg>
